<svg width="30" height="30" viewBox="0 0 30 30" fill="none" xmlns="http://www.w3.org/2000/svg">
<path fill-rule="evenodd" clip-rule="evenodd" d="M15 5C9.47727 5 5 9.47727 5 15C5 20.5227 9.47727 25 15 25C20.5227 25 25 20.5227 25 15C25 9.47727 20.5227 5 15 5ZM18.37 12.9155C18.5356 12.744 18.6272 12.5144 18.6252 12.276C18.6231 12.0376 18.5275 11.8096 18.3589 11.6411C18.1904 11.4725 17.9624 11.3769 17.724 11.3748C17.4856 11.3728 17.256 11.4644 17.0845 11.63L15 13.7145L12.9155 11.63C12.8316 11.5432 12.7313 11.4739 12.6204 11.4263C12.5095 11.3786 12.3902 11.3535 12.2695 11.3525C12.1487 11.3515 12.029 11.3745 11.9173 11.4202C11.8056 11.4659 11.7041 11.5334 11.6187 11.6187C11.5334 11.7041 11.4659 11.8056 11.4202 11.9173C11.3745 12.029 11.3515 12.1487 11.3525 12.2695C11.3535 12.3902 11.3786 12.5095 11.4263 12.6204C11.4739 12.7313 11.5432 12.8316 11.63 12.9155L13.7145 15L11.63 17.0845C11.5432 17.1684 11.4739 17.2687 11.4263 17.3796C11.3786 17.4905 11.3535 17.6098 11.3525 17.7305C11.3515 17.8513 11.3745 17.971 11.4202 18.0827C11.4659 18.1944 11.5334 18.2959 11.6187 18.3813C11.7041 18.4666 11.8056 18.5341 11.9173 18.5798C12.029 18.6255 12.1487 18.6486 12.2695 18.6475C12.3902 18.6465 12.5095 18.6214 12.6204 18.5737C12.7313 18.5261 12.8316 18.4568 12.9155 18.37L15 16.2855L17.0845 18.37C17.256 18.5356 17.4856 18.6272 17.724 18.6252C17.9624 18.6231 18.1904 18.5275 18.3589 18.3589C18.5275 18.1904 18.6231 17.9624 18.6252 17.724C18.6272 17.4856 18.5356 17.256 18.37 17.0845L16.2855 15L18.37 12.9155Z" fill="#9F9F9F"/>
</svg>
