<svg width="30" height="30" viewBox="0 0 30 30" fill="none" xmlns="http://www.w3.org/2000/svg">
<path d="M15 1C12.0837 1.00339 9.28779 2.1465 7.22564 4.17859C5.16348 6.21067 4.00345 8.96579 4.00001 11.8396C3.99652 14.1881 4.77499 16.4728 6.21601 18.3433C6.21601 18.3433 6.51601 18.7326 6.56501 18.7887L15 28.5917L23.439 18.7838C23.483 18.7316 23.784 18.3433 23.784 18.3433L23.785 18.3404C25.2253 16.4707 26.0034 14.187 26 11.8396C25.9966 8.96579 24.8365 6.21067 22.7744 4.17859C20.7122 2.1465 17.9163 1.00339 15 1V1ZM15 15.7813C14.2089 15.7813 13.4355 15.5501 12.7777 15.117C12.1199 14.6838 11.6072 14.0682 11.3045 13.348C11.0017 12.6277 10.9225 11.8352 11.0769 11.0706C11.2312 10.306 11.6122 9.60366 12.1716 9.0524C12.731 8.50115 13.4437 8.12574 14.2197 7.97365C14.9956 7.82156 15.7998 7.89962 16.5307 8.19796C17.2616 8.49629 17.8864 9.00151 18.3259 9.64971C18.7654 10.2979 19 11.06 19 11.8396C18.9987 12.8846 18.5768 13.8864 17.827 14.6253C17.0771 15.3642 16.0605 15.7799 15 15.7813V15.7813Z" fill="black"/>
</svg>
