<svg width="30" height="30" viewBox="0 0 30 30" fill="none" xmlns="http://www.w3.org/2000/svg">
<path fill-rule="evenodd" clip-rule="evenodd" d="M13.1105 14.6734C13.1656 14.6181 13.2311 14.5742 13.3033 14.5443C13.3754 14.5144 13.4527 14.499 13.5308 14.499C13.6089 14.499 13.6863 14.5144 13.7584 14.5443C13.8305 14.5742 13.8961 14.6181 13.9512 14.6734L15.3121 16.0355L16.673 14.6734C16.7845 14.5619 16.9357 14.4993 17.0933 14.4993C17.251 14.4993 17.4022 14.5619 17.5137 14.6734C17.6252 14.7849 17.6878 14.9361 17.6878 15.0938C17.6878 15.2514 17.6252 15.4027 17.5137 15.5141L16.1517 16.875L17.5137 18.2359C17.6252 18.3474 17.6878 18.4986 17.6878 18.6563C17.6878 18.8139 17.6252 18.9652 17.5137 19.0766C17.4022 19.1881 17.251 19.2508 17.0933 19.2508C16.9357 19.2508 16.7845 19.1881 16.673 19.0766L15.3121 17.7146L13.9512 19.0766C13.8397 19.1881 13.6885 19.2508 13.5308 19.2508C13.3732 19.2508 13.222 19.1881 13.1105 19.0766C12.999 18.9652 12.9363 18.8139 12.9363 18.6563C12.9363 18.4986 12.999 18.3474 13.1105 18.2359L14.4725 16.875L13.1105 15.5141C13.0552 15.459 13.0113 15.3935 12.9814 15.3213C12.9514 15.2492 12.936 15.1719 12.936 15.0938C12.936 15.0157 12.9514 14.9383 12.9814 14.8662C13.0113 14.7941 13.0552 14.7286 13.1105 14.6734V14.6734Z" fill="#9F9F9F"/>
<path d="M15.3125 6.1875C16.0999 6.1875 16.855 6.50028 17.4117 7.05703C17.9685 7.61378 18.2812 8.36889 18.2812 9.15625V9.75H12.3438V9.15625C12.3438 8.36889 12.6565 7.61378 13.2133 7.05703C13.77 6.50028 14.5251 6.1875 15.3125 6.1875V6.1875ZM19.4688 9.75V9.15625C19.4688 8.05394 19.0309 6.99679 18.2514 6.21734C17.472 5.43789 16.4148 5 15.3125 5C14.2102 5 13.153 5.43789 12.3736 6.21734C11.5941 6.99679 11.1562 8.05394 11.1562 9.15625V9.75H7V21.625C7 22.2549 7.25022 22.859 7.69562 23.3044C8.14102 23.7498 8.74511 24 9.375 24H21.25C21.8799 24 22.484 23.7498 22.9294 23.3044C23.3748 22.859 23.625 22.2549 23.625 21.625V9.75H19.4688ZM8.1875 10.9375H22.4375V21.625C22.4375 21.9399 22.3124 22.242 22.0897 22.4647C21.867 22.6874 21.5649 22.8125 21.25 22.8125H9.375C9.06006 22.8125 8.75801 22.6874 8.53531 22.4647C8.31261 22.242 8.1875 21.9399 8.1875 21.625V10.9375Z" fill="#9F9F9F"/>
</svg>
