<svg width="28" height="28" viewBox="0 0 28 28" fill="none" xmlns="http://www.w3.org/2000/svg">
<path d="M23.3333 21C23.6307 21.0003 23.9167 21.1142 24.1329 21.3183C24.3492 21.5225 24.4793 21.8015 24.4967 22.0983C24.5141 22.3952 24.4175 22.6875 24.2267 22.9155C24.0358 23.1435 23.7651 23.2901 23.4698 23.3252L23.3333 23.3334H4.66667C4.36931 23.333 4.0833 23.2192 3.86707 23.015C3.65084 22.8109 3.52073 22.5319 3.5033 22.2351C3.48587 21.9382 3.58245 21.6459 3.77331 21.4179C3.96416 21.1899 4.23489 21.0433 4.53017 21.0082L4.66667 21H23.3333ZM23.3333 12.8334C23.6428 12.8334 23.9395 12.9563 24.1583 13.1751C24.3771 13.3939 24.5 13.6906 24.5 14C24.5 14.3094 24.3771 14.6062 24.1583 14.825C23.9395 15.0438 23.6428 15.1667 23.3333 15.1667H4.66667C4.35725 15.1667 4.0605 15.0438 3.84171 14.825C3.62292 14.6062 3.5 14.3094 3.5 14C3.5 13.6906 3.62292 13.3939 3.84171 13.1751C4.0605 12.9563 4.35725 12.8334 4.66667 12.8334H23.3333ZM23.3333 4.66669C23.6428 4.66669 23.9395 4.7896 24.1583 5.0084C24.3771 5.22719 24.5 5.52393 24.5 5.83335C24.5 6.14277 24.3771 6.43952 24.1583 6.65831C23.9395 6.8771 23.6428 7.00002 23.3333 7.00002H4.66667C4.35725 7.00002 4.0605 6.8771 3.84171 6.65831C3.62292 6.43952 3.5 6.14277 3.5 5.83335C3.5 5.52393 3.62292 5.22719 3.84171 5.0084C4.0605 4.7896 4.35725 4.66669 4.66667 4.66669H23.3333Z" fill="black"/>
</svg>
