<svg width="30" height="30" viewBox="0 0 30 30" fill="none" xmlns="http://www.w3.org/2000/svg">
<path d="M27 15.5C27 18.55 25.7884 21.4751 23.6317 23.6317C21.4751 25.7884 18.55 27 15.5 27C12.45 27 9.52494 25.7884 7.36827 23.6317C5.2116 21.4751 4 18.55 4 15.5C4 12.45 5.2116 9.52494 7.36827 7.36827C9.52494 5.2116 12.45 4 15.5 4C18.55 4 21.4751 5.2116 23.6317 7.36827C25.7884 9.52494 27 12.45 27 15.5V15.5ZM15.5 9.03125C15.5 8.84063 15.4243 8.65781 15.2895 8.52302C15.1547 8.38823 14.9719 8.3125 14.7812 8.3125C14.5906 8.3125 14.4078 8.38823 14.273 8.52302C14.1382 8.65781 14.0625 8.84063 14.0625 9.03125V16.9375C14.0625 17.0642 14.0961 17.1886 14.1597 17.2982C14.2233 17.4077 14.3147 17.4985 14.4247 17.5614L19.456 20.4364C19.6211 20.5256 19.8146 20.5467 19.995 20.4952C20.1755 20.4437 20.3287 20.3236 20.4218 20.1607C20.5149 19.9977 20.5406 19.8048 20.4933 19.6232C20.4461 19.4415 20.3297 19.2856 20.169 19.1886L15.5 16.5206V9.03125Z" fill="black"/>
</svg>
